<svg xmlns="http://www.w3.org/2000/svg" xmlns:xlink="http://www.w3.org/1999/xlink" width="1440" viewBox="0 0 1440 810" height="810" version="1.0"><defs><clipPath id="b"><path d="M 0 0 L 475 0 L 475 265 L 0 265 Z M 0 0"/></clipPath><clipPath id="c"><path d="M -91.585938 8.601562 L 240.824219 -294.722656 L 474.382812 -38.769531 L 141.972656 264.554688 Z M -91.585938 8.601562"/></clipPath><clipPath id="d"><path d="M 920 457 L 1440 457 L 1440 810 L 920 810 Z M 920 457"/></clipPath><clipPath id="e"><path d="M 920 871.984375 L 1374.292969 457.445312 L 1709.464844 824.753906 L 1255.171875 1239.296875 Z M 920 871.984375"/></clipPath><clipPath id="f"><path d="M 1031 560 L 1440 560 L 1440 810 L 1031 810 Z M 1031 560"/></clipPath><clipPath id="g"><path d="M 1031.589844 975.410156 L 1485.882812 560.867188 L 1862.507812 973.609375 L 1408.214844 1388.148438 Z M 1031.589844 975.410156"/></clipPath><clipPath id="h"><path d="M 0 0 L 391 0 L 391 173 L 0 173 Z M 0 0"/></clipPath><clipPath id="i"><path d="M -175.394531 -83.730469 L 157.011719 -387.054688 L 390.574219 -131.097656 L 58.164062 172.222656 Z M -175.394531 -83.730469"/></clipPath><clipPath id="l"><path d="M 0 3 L 396.480469 3 L 396.480469 300 L 0 300 Z M 0 3"/></clipPath><clipPath id="k"><path d="M0 0H397V300H0z"/></clipPath><clipPath id="m"><path d="M 1286 106 L 1367 106 L 1367 200.210938 L 1286 200.210938 Z M 1286 106"/></clipPath><clipPath id="n"><path d="M 1259.636719 34.460938 L 1390.886719 34.460938 L 1390.886719 166 L 1259.636719 166 Z M 1259.636719 34.460938"/></clipPath><filter x="0%" y="0%" width="100%" xlink:type="simple" xlink:actuate="onLoad" height="100%" id="a" xlink:show="other"><feColorMatrix values="0 0 0 0 1 0 0 0 0 1 0 0 0 0 1 0 0 0 1 0" color-interpolation-filters="sRGB"/></filter><mask id="j"><g filter="url(#a)"><path fill-opacity=".408" d="M-144 -81H1584V891H-144z"/></g></mask></defs><g clip-path="url(#b)"><g clip-path="url(#c)"><path fill="#4C5270" d="M -91.585938 8.601562 L 240.824219 -294.722656 L 474.382812 -38.769531 L 141.972656 264.554688 Z M -91.585938 8.601562"/></g></g><g clip-path="url(#d)"><g clip-path="url(#e)"><path fill="#4C5270" d="M 920 871.984375 L 1374.292969 457.445312 L 1709.464844 824.753906 L 1255.171875 1239.296875 Z M 920 871.984375"/></g></g><g clip-path="url(#f)"><g clip-path="url(#g)"><path fill="#44476A" d="M 1031.589844 975.410156 L 1485.882812 560.867188 L 1862.507812 973.609375 L 1408.214844 1388.148438 Z M 1031.589844 975.410156"/></g></g><g clip-path="url(#h)"><g clip-path="url(#i)"><path fill="#44476A" d="M -175.394531 -83.730469 L 157.011719 -387.054688 L 390.570312 -131.097656 L 58.164062 172.222656 Z M -175.394531 -83.730469"/></g></g><path fill="#E8BA23" d="M 2.453125 14.078125 L -122.703125 139.234375 L 2.453125 264.394531 L 127.613281 139.234375 L 2.453125 14.078125 M 2.453125 256.421875 L -114.8125 139.152344 L 2.453125 21.886719 L 119.722656 139.152344 L 2.453125 256.421875"/><path fill="#44476A" d="M 2.453125 154.308594 L -122.703125 279.464844 L 2.453125 404.621094 L 127.613281 279.464844 L 2.453125 154.308594 M 2.453125 396.648438 L -114.8125 279.382812 L 2.453125 162.113281 L 119.722656 279.382812 L 2.453125 396.648438"/><path stroke-linecap="round" transform="matrix(3.87817 -3.54053 3.2832 3.5963 126.447 248.69)" fill="none" d="M 0.500378 -0.000163868 L 84.195089 -0.000285616" stroke="#E8BA23"/><path stroke-linecap="round" transform="matrix(3.88325 -3.53192 3.22967 3.55094 921.616 901.959)" fill="none" d="M 0.500275 -0.0000721647 L 86.94422 0.00000299638" stroke="#E8BA23"/><path fill="#E8BA23" d="M 1446.96875 338.523438 L 1182.21875 535.398438 L 1446.96875 732.273438 L 1446.96875 338.523438"/><g mask="url(#j)"><g><g clip-path="url(#k)" transform="translate(0 510)"><g clip-path="url(#l)"><path fill="#D9D9D9" d="M 396.253906 364.554688 L 127.382812 3.054688 L -141.492188 364.554688 L 396.253906 364.554688"/></g></g></g></g><path fill="#44476A" d="M 2.457031 161.695312 L -116.335938 280.488281 L 2.457031 399.28125 L 121.25 280.488281 L 2.457031 161.695312 M 2.457031 391.714844 L -108.847656 280.410156 L 2.457031 169.105469 L 113.761719 280.410156 L 2.457031 391.714844"/><path fill="#4C5270" d="M 2.457031 168.484375 L -109.441406 280.382812 L 2.457031 392.28125 L 114.355469 280.382812 L 2.457031 168.484375 M 2.457031 385.152344 L -102.386719 280.308594 L 2.457031 175.460938 L 107.300781 280.308594 L 2.457031 385.152344"/><g clip-path="url(#m)"><path fill="#4C5270" d="M 1366.097656 200.25 L 1366.097656 106.292969 L 1286.367188 106.292969 L 1286.367188 200.25 L 1326.238281 183.742188 L 1366.097656 200.25"/></g><g clip-path="url(#n)"><path fill="#F0C224" d="M 1390.75 100.054688 C 1390.75 136.269531 1361.425781 165.613281 1325.261719 165.613281 C 1289.09375 165.613281 1259.773438 136.269531 1259.773438 100.054688 C 1259.773438 63.855469 1289.09375 34.5 1325.261719 34.5 C 1361.425781 34.5 1390.75 63.855469 1390.75 100.054688"/></g><path fill="#4C5270" d="M 1378.417969 100.054688 C 1378.417969 129.449219 1354.613281 153.269531 1325.261719 153.269531 C 1295.90625 153.269531 1272.101562 129.449219 1272.101562 100.054688 C 1272.101562 70.667969 1295.90625 46.84375 1325.261719 46.84375 C 1354.613281 46.84375 1378.417969 70.667969 1378.417969 100.054688"/><path fill="#FFF" d="M 1338.28125 87.375 L 1364.949219 91.828125 L 1345.191406 110.300781 L 1349.195312 137.074219 L 1325.539062 123.976562 L 1301.339844 136.0625 L 1306.480469 109.488281 L 1287.515625 90.191406 L 1314.351562 86.863281 L 1326.828125 62.851562 L 1338.28125 87.375"/></svg>