<?xml version="1.0" encoding="UTF-8" standalone="no"?>
<svg
   xmlns:dc="http://purl.org/dc/elements/1.1/"
   xmlns:cc="http://creativecommons.org/ns#"
   xmlns:rdf="http://www.w3.org/1999/02/22-rdf-syntax-ns#"
   xmlns:svg="http://www.w3.org/2000/svg"
   xmlns="http://www.w3.org/2000/svg"
   xmlns:sodipodi="http://sodipodi.sourceforge.net/DTD/sodipodi-0.dtd"
   xmlns:inkscape="http://www.inkscape.org/namespaces/inkscape"
   version="1.1"
   id="svg2"
   xml:space="preserve"
   width="793.70135"
   height="793.70135"
   viewBox="0 0 793.70135 793.70135"
   sodipodi:docname="มหาวิทยาลัยเทคโนโลยีสุรนารี.ai"><metadata
     id="metadata8"><rdf:RDF><cc:Work
         rdf:about=""><dc:format>image/svg+xml</dc:format><dc:type
           rdf:resource="http://purl.org/dc/dcmitype/StillImage" /></cc:Work></rdf:RDF></metadata><defs
     id="defs6"><clipPath
       clipPathUnits="userSpaceOnUse"
       id="clipPath18"><path
         d="M 0,595.276 H 595.276 V 0 H 0 Z"
         id="path16" /></clipPath></defs><sodipodi:namedview
     pagecolor="#ffffff"
     bordercolor="#666666"
     borderopacity="1"
     objecttolerance="10"
     gridtolerance="10"
     guidetolerance="10"
     inkscape:pageopacity="0"
     inkscape:pageshadow="2"
     inkscape:window-width="640"
     inkscape:window-height="480"
     id="namedview4" /><g
     id="g10"
     inkscape:groupmode="layer"
     inkscape:label="มหาวิทยาลัยเทคโนโลยีสุรนารี"
     transform="matrix(1.3333333,0,0,-1.3333333,0,793.70133)"><g
       id="g12"><g
         id="g14"
         clip-path="url(#clipPath18)"><g
           id="g20"
           transform="translate(221.6738,317.8158)"><path
             d="M 0,0 C -0.928,-2.095 -1.78,-4.268 -2.442,-6.629 H 4.885 C 4.936,-4.006 6.229,-2.624 6.28,0 Z m 162.936,-6.629 h 7.326 c -0.641,2.499 -1.613,4.666 -2.442,6.978 h -6.978 c 0.415,-2.61 1.534,-4.514 2.094,-6.978 m -34.193,56.521 h 7.327 c -0.816,2.557 -1.456,5.289 -2.441,7.676 -2.099,-0.228 -5.112,0.459 -6.629,-0.349 0.93,-2.093 1.128,-4.919 1.743,-7.327 m -95.249,8.025 c -0.962,-2.411 -1.48,-5.265 -2.442,-7.676 h 7.327 c 0.804,2.336 0.94,5.34 1.744,7.676 z m 42.217,191.196 h 6.28 V 215.27 h 3.14 c 0.814,10.584 0.117,22.678 0.348,33.843 h 5.932 c 1.155,-26.874 2.166,-53.891 3.489,-80.595 h 6.28 c 0.149,4.337 -1.068,9.163 -0.697,12.56 h 8.024 c 3.032,-40.929 6.957,-80.966 16.05,-115.834 h 8.024 c -1.554,6.819 -3.14,13.607 -4.535,20.585 h 9.42 c 5.64,-27.04 12.266,-53.095 20.236,-77.804 h 8.025 c -1.295,6.032 -3.728,10.925 -4.885,17.095 h 9.072 c 10.242,-32.788 23.703,-64.217 36.983,-92.806 h -10.118 c -7.291,18.061 -15.452,35.253 -22.678,53.381 -3.027,-0.23 -6.976,0.462 -9.421,-0.349 2.984,-7.017 5.77,-14.234 8.374,-21.631 h -9.769 c -8.653,25.772 -17.547,51.302 -24.424,78.851 -2.793,-0.231 -6.508,0.461 -8.721,-0.35 1.661,-5.897 2.753,-12.364 4.535,-18.142 h -9.072 c -10.899,43.296 -21.058,87.331 -24.423,138.164 -1.981,-0.228 -4.878,0.459 -6.28,-0.349 0.812,-6.982 1.282,-14.303 2.094,-21.283 -2.214,0.229 -5.345,-0.46 -6.978,0.349 -2.231,18.947 -3.371,41.704 -4.187,62.104 -0.094,2.355 0.517,7.113 -3.49,6.28 -2.364,-22.29 -1.898,-47.412 -5.232,-68.733 -2.483,0.075 -4.957,0.161 -6.978,0.698 1.043,6.632 1.296,14.055 2.093,20.934 h -6.28 C 61.799,112.067 53.209,66.347 41.17,24.074 c -2.794,0.23 -6.509,-0.462 -8.722,0.349 2.048,5.627 3.182,12.168 4.535,18.492 H 28.609 C 20.913,15.838 13.186,-11.21 3.489,-36.285 h -9.42 c 2.724,7.393 5.649,14.586 8.373,21.98 h -9.42 c -7.419,-17.934 -15.037,-35.669 -23.027,-53.032 h -9.769 C -25.971,-37.878 -12.65,-7.935 -2.442,25.12 0.352,24.89 4.067,25.582 6.28,24.772 5.077,18.764 2.673,13.958 1.396,8.025 H 9.42 c 8.14,24.889 14.496,51.562 20.934,78.153 2.801,-0.339 6.194,-0.086 8.723,-0.698 -1.523,-6.734 -2.96,-13.555 -4.536,-20.236 h 8.024 c 8.674,35.403 13.119,75.037 16.399,115.834 2.446,-0.229 5.811,0.461 7.676,-0.349 0.109,-4.413 -0.727,-7.879 -0.698,-12.211 h 6.629 c 0.95,26.962 2.418,53.405 3.14,80.595"
             style="fill:#ffcb04;fill-opacity:1;fill-rule:evenodd;stroke:none"
             id="path22" /></g><g
           id="g24"
           transform="translate(290.0579,269.6675)"><path
             d="m 0,0 c 3.483,-6.418 8.359,-14.587 9.421,-24.074 1.216,-10.876 -0.9,-22.254 0,-34.192 -1.548,7.366 -2.492,14.884 -5.932,21.283 -1.088,2.024 -3.089,3.57 -3.489,5.233 -0.981,4.079 0,10.202 0,15.352 z"
             style="fill:#ffcb04;fill-opacity:1;fill-rule:evenodd;stroke:none"
             id="path26" /></g><g
           id="g28"
           transform="translate(315.1789,269.3194)"><path
             d="m 0,0 c -0.767,-7.464 2.176,-23.09 0.349,-31.402 -0.378,-1.719 -2.294,-3.854 -3.489,-5.931 -3.275,-5.69 -5.426,-13.033 -6.28,-20.934 0.129,11.41 -1.39,22.383 -0.349,33.145 C -8.807,-15.176 -3.261,-6.835 0,0"
             style="fill:#ffcb04;fill-opacity:1;fill-rule:evenodd;stroke:none"
             id="path30" /></g><g
           id="g32"
           transform="translate(188.1797,228.1483)"><path
             d="m 0,0 c -3.09,-3.035 -6.84,0.72 -10.467,1.396 -5.37,1 -11.243,-0.738 -17.445,0 v 11.862 c 6.102,-0.76 11.179,1.054 16.049,0 C -7.049,12.217 -0.606,5.421 0,0"
             style="fill:#ed1c24;fill-opacity:1;fill-rule:evenodd;stroke:none"
             id="path34" /></g><g
           id="g36"
           transform="translate(443.5735,241.4065)"><path
             d="m 0,0 v -12.211 c -5.933,-0.693 -11.348,1.171 -16.398,0.349 -4.086,-0.666 -7.938,-4.78 -11.515,-1.745 0.077,6.17 6.621,10.199 10.817,12.909 C -13.836,1.409 -6.155,-0.806 0,0"
             style="fill:#ed1c24;fill-opacity:1;fill-rule:evenodd;stroke:none"
             id="path38" /></g><g
           id="g40"
           transform="translate(182.946,220.1238)"><path
             d="m 0,0 c -4.047,-2.433 -9.633,-0.198 -13.607,-0.697 -6.454,-0.812 -12.918,-7.361 -19.538,-8.723 -1.033,4.549 -2.743,8.421 -3.838,12.909 6.667,1.288 14.65,3.493 20.934,5.234 0.194,0.054 0.855,0.061 1.046,0 C -9.872,7.073 -2.816,4.465 0,0"
             style="fill:#ed1c24;fill-opacity:1;fill-rule:evenodd;stroke:none"
             id="path42" /></g><g
           id="g44"
           transform="translate(457.878,223.2649)"><path
             d="m 0,0 c -0.99,-4.593 -2.683,-8.483 -3.837,-12.91 -3.042,1.556 -6.276,2.547 -9.769,4.186 -2.932,1.377 -6.221,4.067 -9.421,4.537 -4.231,0.62 -9.698,-1.782 -13.956,0.698 2.199,4.343 9.767,6.916 14.653,8.722 0.144,0.053 0.546,0.027 0.698,0 C -15.1,4.058 -6.737,1.274 0,0"
             style="fill:#ed1c24;fill-opacity:1;fill-rule:evenodd;stroke:none"
             id="path46" /></g><g
           id="g48"
           transform="translate(180.8528,210.0066)"><path
             d="m 0,0 c 0.466,-6.041 -5.541,-3.903 -9.071,-4.536 -3.814,-0.684 -8.084,-4.192 -11.863,-6.28 -4.206,-2.325 -8.032,-4.402 -11.514,-6.28 -3.065,3.213 -5.405,7.154 -7.327,11.513 7.009,3.089 16.246,6.879 23.028,10.117 C -12.726,6.457 -5.29,1.347 0,0"
             style="fill:#ed1c24;fill-opacity:1;fill-rule:evenodd;stroke:none"
             id="path50" /></g><g
           id="g52"
           transform="translate(463.1117,203.7256)"><path
             d="m 0,0 c -2.154,-4.01 -4.902,-7.426 -6.978,-11.514 -3.722,1.738 -7.547,4.227 -11.862,6.629 -3.657,2.036 -8.31,5.576 -11.864,6.28 -3.541,0.703 -9.59,-1.645 -9.42,4.188 3.82,2.323 9.372,3.871 13.258,5.232 0.433,0.152 0.904,0.422 1.397,0.35 C -17.454,9.983 -7.622,2.131 0,0"
             style="fill:#ed1c24;fill-opacity:1;fill-rule:evenodd;stroke:none"
             id="path54" /></g><g
           id="g56"
           transform="translate(466.6008,182.792)"><path
             d="m 0,0 c -3.167,-4.509 -7.203,-8.15 -10.467,-12.56 -9.306,6.626 -18.13,13.736 -26.866,20.934 -3.429,0.524 -5.692,2.215 -9.071,2.791 -0.346,2.904 0.313,4.804 1.745,5.931 5.339,-0.814 10.042,1.366 14.304,0.698 0.181,-0.028 0.541,0.086 0.699,0 C -19.478,12.217 -9.768,5.253 0,0"
             style="fill:#ed1c24;fill-opacity:1;fill-rule:evenodd;stroke:none"
             id="path58" /></g><g
           id="g60"
           transform="translate(182.2483,199.1902)"><path
             d="m 0,0 c 1.016,-1.382 1.017,-2.41 0.698,-4.536 -9.347,-1.796 -14.982,-7.799 -21.632,-12.91 -4.599,-3.532 -8.719,-7.416 -13.607,-10.466 -2.503,4.592 -6.796,7.393 -9.42,11.863 8.844,5.118 19.474,11.837 28.61,17.096 C -12.375,2.76 -4.31,-0.357 0,0"
             style="fill:#ed1c24;fill-opacity:1;fill-rule:evenodd;stroke:none"
             id="path62" /></g><g
           id="g64"
           transform="translate(188.1797,186.6302)"><path
             d="m 0,0 v -3.838 c -13.835,-6.518 -20.194,-20.511 -31.401,-29.657 -2.151,5.525 -8.602,6.75 -12.909,10.119 9.605,8.653 19.823,16.694 29.656,25.12 C -9.317,1.615 -3.121,2.345 0,0"
             style="fill:#ed1c24;fill-opacity:1;fill-rule:evenodd;stroke:none"
             id="path66" /></g><g
           id="g68"
           transform="translate(459.9717,162.5556)"><path
             d="m 0,0 c -4.462,-3.214 -10.733,-4.619 -12.909,-10.118 -4.263,4.054 -8.08,8.432 -12.212,12.909 -5.781,6.265 -10.3,13.569 -19.19,16.747 0.172,1.567 -0.177,2.614 -0.348,3.838 3.071,2.627 9.408,1.989 15.003,2.093 C -19.952,16.799 -9.308,9.068 0,0"
             style="fill:#ed1c24;fill-opacity:1;fill-rule:evenodd;stroke:none"
             id="path70" /></g><g
           id="g72"
           transform="translate(194.1111,178.2566)"><path
             d="m 0,0 c -0.057,-0.406 0.077,-0.621 0.349,-0.698 -6.318,-15.315 -15.309,-27.956 -22.33,-42.566 -5.328,4.092 -11.267,7.573 -19.538,8.723 8.563,10.858 18.204,20.64 27.214,31.052 C -9.397,-2.801 -4.748,1.429 0,0"
             style="fill:#ed1c24;fill-opacity:1;fill-rule:evenodd;stroke:none"
             id="path74" /></g><g
           id="g76"
           transform="translate(451.249,143.3665)"><path
             d="m 0,0 c -7.576,-1.845 -14.443,-4.397 -19.189,-9.072 -5.876,10.607 -12.035,21.446 -18.143,32.448 -1.835,3.307 -5.085,7.414 -3.838,11.514 2.62,-0.258 11.972,-2.576 14.306,-4.187 2.23,-1.54 4.715,-5.185 6.977,-7.676 C -13.276,15.748 -6.32,7.292 0,0"
             style="fill:#ed1c24;fill-opacity:1;fill-rule:evenodd;stroke:none"
             id="path78" /></g><g
           id="g80"
           transform="translate(204.9269,166.0447)"><path
             d="M 0,0 C 0.229,-4.657 -1.919,-9.132 -3.489,-13.258 -8.11,-25.395 -13.19,-37.96 -17.794,-50.59 c -2.049,2.255 -3.259,5.347 -4.885,8.024 h -13.258 c 6.553,12.753 13.438,25.174 19.887,38.031 C -10.638,-3.45 -6.111,1.901 0,0"
             style="fill:#ed1c24;fill-opacity:1;fill-rule:evenodd;stroke:none"
             id="path82" /></g><g
           id="g84"
           transform="translate(434.8508,123.1301)"><path
             d="m 0,0 c -3.607,-0.813 -8.721,-0.117 -12.909,-0.349 -2.048,-2.255 -3.26,-5.347 -4.885,-8.025 -4.958,11.402 -9.717,24.3 -14.653,37.333 -1.483,3.913 -4.218,9.788 -3.489,13.257 6.069,2.149 10.377,-3.285 15.701,-4.186 C -13.413,25.432 -6.917,12.505 0,0"
             style="fill:#ed1c24;fill-opacity:1;fill-rule:evenodd;stroke:none"
             id="path86" /></g><g
           id="g88"
           transform="translate(221.6738,156.9739)"><path
             d="m 0,0 c -3.232,-18.516 -7.539,-35.957 -10.816,-54.428 -3.167,1.273 -5.717,6.129 -9.071,8.373 h -13.259 c 4.611,13.649 9.967,26.552 14.655,40.123 C -12.821,-3.891 -6.475,6.382 0,0"
             style="fill:#ed1c24;fill-opacity:1;fill-rule:evenodd;stroke:none"
             id="path90" /></g><g
           id="g92"
           transform="translate(415.3126,110.2211)"><path
             d="m 0,0 c -5.13,-0.743 -9.143,1.033 -12.909,0 -4.51,-1.236 -5.833,-7.677 -9.421,-8.374 -2.524,11.751 -5.492,27.185 -8.373,41.17 -1.215,5.898 -5.899,16.44 2.093,16.049 3.98,-0.194 10.095,-7.724 13.956,-8.721 C -10.084,26.433 -4.701,13.558 0,0"
             style="fill:#ed1c24;fill-opacity:1;fill-rule:evenodd;stroke:none"
             id="path94" /></g><g
           id="g96"
           transform="translate(239.1188,92.4274)"><path
             d="m 0,0 c -4.233,1.08 -7.566,10.147 -12.211,11.165 -3.822,0.837 -7.952,-2.014 -12.91,-1.745 1.691,9.648 3.736,20.886 5.583,31.401 0.627,3.57 0.551,7.632 1.744,10.467 0.637,1.513 8.845,12.427 11.514,11.862 4.723,-1 10.101,-8.949 10.467,-13.955 C 4.45,45.596 3.519,40.752 3.14,36.635 2.07,24.998 0.557,11.941 0,0"
             style="fill:#ed1c24;fill-opacity:1;fill-rule:evenodd;stroke:none"
             id="path98" /></g><g
           id="g100"
           transform="translate(389.4934,101.1502)"><path
             d="m 0,0 c -4.968,-0.426 -8.734,2.534 -12.56,1.744 -4.312,-0.891 -8.391,-9.984 -12.211,-10.816 -0.94,9.553 -2.394,25.378 -3.489,37.332 -0.399,4.357 -1.116,9.294 -0.698,12.561 0.605,4.73 5.839,12.68 9.769,12.909 5.602,0.325 8.857,-9.648 12.212,-12.212 C -4.895,27.435 -2.082,14.082 0,0"
             style="fill:#ed1c24;fill-opacity:1;fill-rule:evenodd;stroke:none"
             id="path102" /></g><g
           id="g104"
           transform="translate(266.6815,89.2875)"><path
             d="m 0,0 c -1.775,-0.377 -3.755,2.555 -5.582,4.186 -2.051,1.831 -4.265,3.651 -5.932,5.234 -4.145,-2.251 -8.181,-4.611 -12.909,-6.28 0.842,10.87 1.606,24.009 2.443,36.285 0.275,4.035 -0.314,8.805 0.697,11.863 0.627,1.893 8.906,10.716 11.863,10.816 2.875,0.096 4.144,-3.224 5.582,-5.583 C -1.205,52.202 0.318,51.576 0,45.356 -0.702,31.579 0.533,13.654 0,0"
             style="fill:#ed1c24;fill-opacity:1;fill-rule:evenodd;stroke:none"
             id="path106" /></g><g
           id="g108"
           transform="translate(358.0935,140.2265)"><path
             d="m 0,0 c 1.12,-16.208 2.059,-32.597 3.14,-48.846 -4.543,1.738 -8.218,4.343 -12.56,6.281 -4.485,-2.496 -8.126,-7.691 -11.864,-9.77 -0.39,6.603 -0.348,15.763 -0.348,25.12 0,8.737 -1.278,18.435 0,25.121 0.463,2.424 6.624,12.508 8.723,12.56 C -7.205,10.61 -3.935,2.602 0,0"
             style="fill:#ed1c24;fill-opacity:1;fill-rule:evenodd;stroke:none"
             id="path110" /></g><g
           id="g112"
           transform="translate(299.1298,87.1938)"><path
             d="m 0,0 c -4.895,2.897 -9.096,6.488 -13.607,9.769 -4.584,-2.744 -9.439,-5.215 -13.956,-8.024 -0.633,11.358 -0.349,24.601 -0.349,37.331 0,4.223 -0.874,9.373 0,12.212 0.704,2.288 10.308,9.885 12.56,10.816 C -7.245,65.456 -4.216,53.747 0,50.241 Z"
             style="fill:#ed1c24;fill-opacity:1;fill-rule:evenodd;stroke:none"
             id="path114" /></g><g
           id="g116"
           transform="translate(332.2752,138.1329)"><path
             d="m 0,0 v -49.893 c -5.144,2.184 -9.322,5.333 -14.306,7.677 -4.864,-2.695 -8.776,-6.343 -13.607,-9.072 v 25.121 c 0,8.596 -1.498,18.447 0,24.771 0.656,2.765 8.62,12.282 11.863,12.56 C -8.996,11.772 -4.775,2.334 0,0"
             style="fill:#ed1c24;fill-opacity:1;fill-rule:evenodd;stroke:none"
             id="path118" /></g><g
           id="g120"
           transform="translate(276.4511,280.4829)"><path
             d="M 0,0 C 17.794,-0.232 36.518,0.465 53.729,-0.348 37.394,-1.962 18.03,-0.591 0.349,-1.046 -0.057,-1.103 -0.272,-0.969 -0.349,-0.697 -0.406,-0.291 -0.272,-0.077 0,0 m 6.629,6.629 h 20.585 c 6.938,0 15.08,1.324 20.235,0 2,-0.512 3.058,-3.269 5.235,-3.14 C 37.531,2.11 18.159,2.785 2.093,3.14 3.62,4.289 5.424,5.16 6.629,6.629 m 4.535,49.893 c 0.609,-12.602 1.369,-28.54 1.396,-43.264 0.52,-1.457 3.91,-0.043 4.885,-1.046 -0.653,-3.301 -6.8,-1.109 -10.118,-1.745 1.334,15.297 2.718,30.543 3.837,46.055 m 13.258,-44.31 c 1.36,0.733 4.013,0.174 5.932,0.349 0.515,-1.562 -1.021,-1.071 -0.697,-2.443 H 25.12 c -0.201,0.73 -0.864,0.997 -0.698,2.094 M -3.489,-4.186 h 58.964 v -26.073 c 3.159,1.901 9.569,5.12 10.228,5.452 l 0.238,0.194 V 0.349 C 60.739,0.124 59.002,8.344 53.729,9.769 47.22,11.531 39.38,7.286 36.634,13.607 c 1.52,0.639 0.934,2.299 1.046,3.839 0.746,10.178 -2.792,22.819 -1.046,32.447 3.306,1.735 6.366,1.941 10.815,2.094 1.898,9.133 -1.307,16.869 0.699,26.167 1.076,4.989 7.613,8.091 7.676,12.909 0.064,4.931 -8.502,12.517 -11.864,14.305 -3.771,2.007 -9.893,1.625 -14.652,1.744 -0.987,3.42 2.246,5.384 2.442,8.374 0.086,1.323 -0.56,2.201 -0.699,3.489 -0.199,1.871 0.378,3.738 -0.349,5.931 -1.619,4.545 -7.394,2.273 -12.559,2.094 0.376,-1.265 -1.496,-1.943 -1.745,-3.141 -0.339,-1.636 1.034,-3.278 1.047,-5.582 0.004,-0.798 -0.98,-1.365 -1.047,-1.744 -0.88,-4.976 6.275,-5.902 4.536,-11.165 C 15.729,104.872 10.544,103.105 8.722,98.739 7.66,96.193 7.889,91.601 7.675,87.574 7.048,75.774 5.909,62.836 4.187,53.731 5.361,51.905 6.079,49.957 6.28,47.451 7.179,36.208 4.02,21.35 3.838,10.118 -6.517,11.053 -6.511,1.627 -13.956,-0.348 v -24.258 c 4.972,-0.626 9.567,-2.746 10.467,-3.177 z"
             style="fill:#231f20;fill-opacity:1;fill-rule:nonzero;stroke:none"
             id="path122" /></g><g
           id="g124"
           transform="translate(339.9496,245.5939)"><path
             d="m 0,0 c -0.871,-5.621 2.28,-21.273 0.349,-27.913 -0.512,-1.763 -4.127,-4.414 -6.28,-6.28 -6.812,-5.902 -13.82,-12.288 -19.887,-17.095 C -25.5,-25.903 -15.056,-10.646 0,0 m 14.655,-24.772 h 25.12 c -0.613,-5.9 -2.377,-10.649 -5.931,-13.607 H 0 c 4.275,5.146 9.638,9.203 14.655,13.607 M 8.026,2.442 H 33.844 C 34.477,0.958 32.317,0.468 31.402,-0.349 24.037,-6.922 15.638,-15.068 7.677,-21.284 7.814,-13.395 7.345,-4.902 8.026,2.442 M 39.775,-18.492 H 23.027 c 5.239,4.88 11.015,9.222 16.05,14.305 1.612,-3.39 0.245,-9.757 0.698,-14.305 m -62.453,-39.774 c 3.686,5.105 10.527,10.019 15.701,15.002 H 29.308 C 18.904,-55.094 0.347,-60.165 -22.678,-58.266 M -8.644,3.036 c -16.71,-11.658 -25.475,-31.261 -24.5,-60.605 -3.124,0.099 -1.03,-5.017 -2.094,-6.977 26.502,-1.162 51.044,-0.61 65.593,11.513 3.476,2.897 7.112,7.012 10.118,11.514 4.887,7.32 8.84,14.71 7.327,27.213 1.866,-0.226 4.645,0.46 5.931,-0.349 2.388,-22.446 -7.911,-33.907 -19.538,-43.262 -8.45,-6.799 -19.981,-10.994 -32.098,-11.863 -11.522,-0.825 -24.495,0.615 -36.984,0 0.191,-2.867 -0.616,-4.734 -0.349,-7.676 12.786,0.598 25.254,-0.81 37.333,0 21.52,1.443 39.999,13.535 50.241,27.214 3.369,4.501 8.226,11.889 8.722,17.097 0.8,8.412 -1.309,16.625 -0.349,26.167 -4.303,0.23 -9.535,-0.464 -13.258,0.349 v 15.7 H 2.563 C 1.396,8.482 -5.951,4.775 -8.341,3.18 -8.435,3.116 -8.539,3.074 -8.644,3.036"
             style="fill:#ffcb04;fill-opacity:1;fill-rule:nonzero;stroke:none"
             id="path126" /></g><g
           id="g128"
           transform="translate(226.5583,220.4729)"><path
             d="m 0,0 c 6.858,-1.437 19.289,1.886 26.167,0 2.399,-0.658 5.253,-4.903 6.978,-6.629 2.38,-2.38 5.134,-4.092 5.932,-6.629 -11.487,0.142 -23.6,-0.34 -34.541,0.349 C 1.209,-10.653 -1.266,-5.687 0,0 M 1.047,21.632 C 6.268,16.617 12.983,11.239 17.096,6.28 H 1.047 Z m 28.958,5.931 C 29.806,19.803 30.247,12.686 30.354,5.234 28.25,4.886 26.763,7.912 24.772,9.769 18.869,15.275 11.851,21.598 5.931,27.214 c 7.328,0.814 16.166,0.116 24.074,0.349 m 7.676,-0.698 C 56.61,19.394 62.568,-1.048 64.546,-25.47 c -1.354,-0.468 -2.192,1.253 -3.14,2.094 -7.476,6.628 -16.251,14.407 -23.725,21.282 z M 7.327,-18.143 c 5.357,0.304 12.895,-0.313 19.539,-0.349 6.505,-0.035 14.027,1.252 19.189,0 2.78,-0.674 6.326,-5.425 8.373,-7.327 2.81,-2.61 5.579,-4.917 7.327,-7.326 -24.241,-1.099 -46.493,-0.207 -54.428,15.002 M -7.675,18.492 h -11.863 c 0.055,-9.928 -1.02,-20.25 -0.349,-28.958 0.747,-9.703 6.557,-18.071 12.212,-23.726 8.087,-8.088 19.386,-14.353 33.145,-17.445 14.235,-3.198 30.619,-1.77 48.496,-2.093 v 9.42 c -13.117,0.615 -26.344,-0.83 -38.727,0 -10.936,0.734 -22.028,5.358 -29.657,10.467 -12.874,8.621 -20.406,21.06 -16.747,43.961 h 3.49 V -3.489 c 2.489,-7.689 4.467,-14.685 8.722,-19.887 6.388,-7.813 19.192,-15.474 32.098,-16.399 12.325,-0.883 26.316,0.648 41.519,0 v 6.979 c -0.005,1.041 -2.585,-0.492 -2.093,1.046 -0.056,29.546 -6.248,52.953 -26.057,62.744 l -0.405,0.195 c -0.012,-0.007 -5.347,2.673 -10.834,3.225 -0.249,0.025 -0.605,0.071 -1.009,0.127 H -7.327 C -7.559,29.306 -6.862,23.145 -7.675,18.492"
             style="fill:#ffcb04;fill-opacity:1;fill-rule:nonzero;stroke:none"
             id="path130" /></g><g
           id="g132"
           transform="translate(126.8085,96.0163)"><path
             d="m 0,0 c -1.634,-1.93 -3.702,-3.004 -6.202,-3.224 -2.5,-0.219 -4.705,0.48 -6.615,2.098 -1.217,1.029 -2.09,2.24 -2.62,3.631 -0.53,1.39 -0.668,2.739 -0.415,4.045 l -3.205,-2.392 -1.845,1.563 8.865,10.466 1.157,-0.981 6.917,8.166 2.296,-1.944 -9.872,-11.655 c -0.962,-1.136 -1.399,-2.588 -1.311,-4.353 0.088,-1.766 0.754,-3.175 1.997,-4.227 1.243,-1.054 2.729,-1.461 4.458,-1.223 1.632,0.228 2.946,0.931 3.942,2.107 l 9.872,11.656 2.453,-2.078 z"
             style="fill:#231f20;fill-opacity:1;fill-rule:nonzero;stroke:none"
             id="path134" /></g><g
           id="g136"
           transform="translate(154.004,95.2287)"><path
             d="m 0,0 -8.042,0.617 c 0.516,-0.699 0.883,-1.368 1.105,-2.009 0.142,-0.395 0.285,-1.013 0.429,-1.854 0.166,-0.75 0.188,-1.6 0.067,-2.551 -0.203,-1.486 -0.76,-2.881 -1.673,-4.187 l -6.642,-9.493 -2.465,1.725 6.641,9.493 c 0.963,1.376 1.301,2.899 1.015,4.568 -0.287,1.67 -1.111,2.981 -2.473,3.934 -1.363,0.954 -2.871,1.279 -4.526,0.979 -1.654,-0.301 -2.967,-1.147 -3.941,-2.538 l -6.641,-9.492 -2.465,1.725 13.997,20.006 2.466,-1.724 -2.963,-4.236 c -0.164,-0.202 -0.275,-0.347 -0.335,-0.432 -0.188,-0.27 -0.224,-0.456 -0.108,-0.559 0.181,-0.189 0.421,-0.22 0.721,-0.091 0.3,-0.02 0.512,-0.031 0.636,-0.033 0.347,-0.011 0.682,-0.012 1.002,-0.004 0.176,-0.017 0.411,-0.055 0.705,-0.113 0.693,-0.146 1.077,-0.225 1.153,-0.236 l 8.123,-0.547 z"
             style="fill:#231f20;fill-opacity:1;fill-rule:nonzero;stroke:none"
             id="path138" /></g><g
           id="g140"
           transform="translate(152.2262,67.7605)"><path
             d="M 0,0 -2.758,1.651 6.651,17.362 C 7.14,18.179 7.273,19.07 7.05,20.031 6.826,20.992 6.31,21.715 5.501,22.199 4.78,22.632 3.961,22.748 3.043,22.55 2.22,22.378 1.433,21.981 0.682,21.361 l -0.09,3.203 c 2.1,1.104 4.187,1.035 6.261,-0.207 1.514,-0.907 2.542,-2.204 3.081,-3.889 0.54,-1.685 0.364,-3.272 -0.525,-4.757 z"
             style="fill:#231f20;fill-opacity:1;fill-rule:nonzero;stroke:none"
             id="path142" /></g><g
           id="g144"
           transform="translate(175.0493,65.8975)"><path
             d="m 0,0 c -1.152,-2.251 -2.898,-3.779 -5.236,-4.586 -2.339,-0.807 -4.676,-0.612 -7.011,0.583 -1.694,0.867 -2.958,2.029 -3.791,3.487 -0.751,1.318 -1.119,2.78 -1.105,4.387 l 3.044,0.077 c -0.045,-0.989 0.225,-1.987 0.806,-2.995 0.582,-1.008 1.384,-1.774 2.407,-2.298 1.541,-0.788 3.101,-0.911 4.68,-0.366 1.579,0.544 2.754,1.571 3.528,3.082 l 2.793,5.457 c 0.82,1.603 0.999,3.213 0.537,4.831 -0.462,1.618 -1.472,2.825 -3.028,3.622 -1.405,0.719 -2.958,0.76 -4.66,0.124 -1.703,-0.636 -2.913,-1.655 -3.631,-3.058 l -2.195,2.203 c 0.947,1.849 2.595,3.122 4.943,3.816 2.349,0.695 4.6,0.492 6.752,-0.61 C 1.152,16.569 2.684,14.764 3.427,12.34 4.148,9.987 3.937,7.692 2.793,5.457 Z"
             style="fill:#231f20;fill-opacity:1;fill-rule:nonzero;stroke:none"
             id="path146" /></g><g
           id="g148"
           transform="translate(182.4831,82.6178)"><path
             d="M 0,0 -15.089,7.012 -13.787,9.815 1.302,2.803 Z"
             style="fill:#231f20;fill-opacity:1;fill-rule:nonzero;stroke:none"
             id="path150" /></g><g
           id="g152"
           transform="translate(191.687,48.6785)"><path
             d="m 0,0 -2.777,1.156 5.87,14.101 c 0.618,1.487 0.602,3.032 -0.049,4.636 -0.652,1.602 -1.721,2.713 -3.209,3.333 -1.456,0.605 -2.984,0.581 -4.585,-0.075 -1.601,-0.657 -2.714,-1.736 -3.34,-3.239 l -5.87,-14.101 -2.777,1.157 9.384,22.542 2.777,-1.157 -1.407,-3.381 c 0.949,0.899 2.051,1.426 3.303,1.58 1.253,0.153 2.481,-0.02 3.684,-0.521 2.247,-0.935 3.855,-2.594 4.822,-4.976 0.968,-2.381 0.983,-4.699 0.044,-6.954 z"
             style="fill:#231f20;fill-opacity:1;fill-rule:nonzero;stroke:none"
             id="path154" /></g><g
           id="g156"
           transform="translate(215.7315,50.7649)"><path
             d="m 0,0 c -0.86,-2.634 -2.295,-4.571 -4.304,-5.809 -2.189,-1.345 -4.643,-1.571 -7.365,-0.683 -2.347,0.766 -4.088,2.282 -5.224,4.547 -1.136,2.266 -1.317,4.584 -0.543,6.954 0.435,1.333 1.292,2.493 2.569,3.479 0.412,0.321 1.008,0.682 1.788,1.083 -0.56,0.493 -0.978,1.176 -1.252,2.049 -0.307,0.992 -0.297,1.99 0.031,2.995 0.457,1.399 1.444,2.407 2.962,3.023 1.431,0.571 2.831,0.633 4.2,0.186 0.521,-0.171 0.961,-0.383 1.32,-0.636 0.359,-0.254 0.678,-0.59 0.956,-1.009 l -0.935,-2.865 c -0.045,0.361 -0.263,0.715 -0.655,1.061 -0.392,0.347 -0.865,0.611 -1.419,0.792 -0.766,0.249 -1.461,0.276 -2.084,0.079 -0.726,-0.237 -1.221,-0.759 -1.484,-1.565 -0.199,-0.609 -0.183,-1.206 0.05,-1.792 0.232,-0.586 0.642,-1.057 1.229,-1.413 0.255,0.062 0.528,0.123 0.818,0.184 0.29,0.06 0.56,0.086 0.81,0.077 0.276,0.019 0.485,0.023 0.626,0.014 0.375,-0.012 0.774,-0.088 1.198,-0.227 L -7.571,7.882 c -1.596,0.247 -2.977,0.106 -4.142,-0.424 -1.377,-0.625 -2.331,-1.753 -2.863,-3.383 -0.553,-1.696 -0.454,-3.267 0.3,-4.715 0.753,-1.449 1.937,-2.437 3.55,-2.963 1.646,-0.538 3.227,-0.353 4.741,0.556 1.514,0.909 2.555,2.235 3.125,3.98 l 4.539,13.903 2.86,-0.934 z"
             style="fill:#231f20;fill-opacity:1;fill-rule:nonzero;stroke:none"
             id="path158" /></g><g
           id="g160"
           transform="translate(227.3989,37.4901)"><path
             d="m 0,0 -3.114,0.8 4.557,17.738 c 0.237,0.922 0.111,1.813 -0.376,2.671 -0.488,0.858 -1.189,1.405 -2.101,1.64 -0.814,0.208 -1.633,0.088 -2.456,-0.362 -0.74,-0.4 -1.383,-1.004 -1.926,-1.812 l -0.997,3.045 c 1.7,1.656 3.72,2.182 6.062,1.581 1.71,-0.44 3.063,-1.391 4.059,-2.854 0.996,-1.461 1.279,-3.033 0.848,-4.709 z"
             style="fill:#231f20;fill-opacity:1;fill-rule:nonzero;stroke:none"
             id="path162" /></g><g
           id="g164"
           transform="translate(249.1191,32.9401)"><path
             d="m 0,0 -2.955,0.565 2.297,12.017 C -0.755,12.53 -0.832,12.492 -0.889,12.468 -1.08,12.38 -1.222,12.32 -1.316,12.285 c -0.584,-0.224 -1.385,-0.343 -2.4,-0.361 -1.016,-0.018 -2.079,0.08 -3.191,0.293 -1.903,0.364 -3.312,0.386 -4.228,0.068 -0.769,-0.277 -1.364,-0.789 -1.786,-1.536 -0.123,-0.278 -0.218,-0.501 -0.286,-0.673 -0.068,-0.172 -0.124,-0.378 -0.17,-0.616 -0.065,-0.34 -0.086,-0.724 -0.063,-1.151 0.066,-0.841 0.452,-1.585 1.157,-2.232 0.706,-0.646 1.522,-1.057 2.448,-1.234 0.539,-0.104 1.057,-0.11 1.554,-0.02 0.497,0.091 0.932,0.285 1.303,0.584 L -7.559,2.371 C -8.156,2.167 -8.76,2.045 -9.37,2.003 c -0.61,-0.042 -1.185,-0.011 -1.723,0.092 -1.803,0.345 -3.233,1.328 -4.293,2.95 -1.06,1.621 -1.418,3.334 -1.073,5.137 0.416,2.177 1.466,3.696 3.149,4.555 1.683,0.859 4.005,1.006 6.97,0.439 1.599,-0.305 2.938,-0.332 4.016,-0.08 1.371,0.319 2.228,1.063 2.574,2.232 0.033,0.081 0.066,0.207 0.099,0.377 0.233,1.225 -0.238,2.32 -1.415,3.286 -1.025,0.848 -2.303,1.419 -3.835,1.712 -1.667,0.319 -3.199,-0.067 -4.594,-1.158 -1.396,-1.091 -2.263,-2.521 -2.601,-4.29 l -2.614,2.351 c 0.773,2.215 2.128,3.891 4.064,5.029 1.937,1.136 4.042,1.488 6.315,1.053 2.358,-0.451 4.275,-1.47 5.752,-3.057 1.606,-1.735 2.201,-3.691 1.784,-5.868 z"
             style="fill:#231f20;fill-opacity:1;fill-rule:nonzero;stroke:none"
             id="path166" /></g><g
           id="g168"
           transform="translate(258.2554,60.9008)"><path
             d="m 0,0 -15.631,2.406 0.932,6.059 2.974,-0.458 L -12.187,5.004 0.47,3.055 Z"
             style="fill:#231f20;fill-opacity:1;fill-rule:nonzero;stroke:none"
             id="path170" /></g><g
           id="g172"
           transform="translate(272.2773,39.7458)"><path
             d="m 0,0 c -0.325,-2.751 -1.35,-4.932 -3.076,-6.542 -1.881,-1.75 -4.243,-2.455 -7.086,-2.121 -2.452,0.29 -4.458,1.433 -6.017,3.431 -1.561,1.997 -2.194,4.235 -1.902,6.711 0.164,1.393 0.776,2.698 1.834,3.917 0.34,0.395 0.854,0.866 1.539,1.413 -0.646,0.373 -1.19,0.96 -1.63,1.762 -0.497,0.912 -0.683,1.894 -0.559,2.943 0.172,1.462 0.941,2.644 2.308,3.547 1.291,0.842 2.651,1.178 4.081,1.009 0.545,-0.065 1.018,-0.185 1.421,-0.364 0.401,-0.178 0.779,-0.445 1.135,-0.801 l -0.353,-2.992 c -0.115,0.345 -0.399,0.649 -0.851,0.911 -0.453,0.263 -0.968,0.428 -1.547,0.497 -0.8,0.094 -1.486,-0.017 -2.058,-0.333 -0.667,-0.375 -1.049,-0.984 -1.148,-1.827 -0.076,-0.636 0.059,-1.218 0.402,-1.747 0.343,-0.529 0.838,-0.909 1.484,-1.143 0.237,0.112 0.492,0.225 0.765,0.342 0.273,0.115 0.532,0.194 0.779,0.234 0.267,0.074 0.471,0.119 0.611,0.138 0.37,0.061 0.776,0.065 1.219,0.013 L -8.975,6.237 c -1.613,-0.07 -2.94,-0.481 -3.977,-1.23 -1.227,-0.885 -1.94,-2.178 -2.141,-3.881 -0.209,-1.771 0.198,-3.292 1.222,-4.564 1.024,-1.272 2.379,-2.007 4.065,-2.206 1.719,-0.203 3.232,0.29 4.537,1.479 1.306,1.188 2.066,2.695 2.281,4.517 l 1.713,14.524 2.988,-0.352 z"
             style="fill:#231f20;fill-opacity:1;fill-rule:nonzero;stroke:none"
             id="path174" /></g><g
           id="g176"
           transform="translate(279.4757,29.3824)"><path
             d="m 0,0 -2.976,0.209 1.71,24.358 2.976,-0.21 z"
             style="fill:#231f20;fill-opacity:1;fill-rule:nonzero;stroke:none"
             id="path178" /></g><g
           id="g180"
           transform="translate(302.1109,28.4337)"><path
             d="m 0,0 -3.007,0.087 0.444,15.268 c 0.046,1.61 -0.521,3.047 -1.702,4.311 -1.181,1.265 -2.577,1.92 -4.188,1.967 -1.576,0.046 -2.995,-0.524 -4.256,-1.708 -1.26,-1.185 -1.915,-2.592 -1.962,-4.218 l -0.444,-15.267 -3.007,0.087 0.71,24.407 3.007,-0.087 -0.106,-3.662 c 0.565,1.179 1.406,2.065 2.521,2.656 1.114,0.591 2.323,0.868 3.626,0.83 2.433,-0.071 4.527,-1.045 6.282,-2.924 1.755,-1.879 2.597,-4.039 2.526,-6.479 z"
             style="fill:#231f20;fill-opacity:1;fill-rule:nonzero;stroke:none"
             id="path182" /></g><g
           id="g184"
           transform="translate(324.8014,29.3138)"><path
             d="m 0,0 -3.005,-0.16 -0.814,15.252 c -0.1,1.867 -0.806,3.338 -2.117,4.413 -1.203,0.993 -2.627,1.446 -4.27,1.359 -1.576,-0.084 -2.924,-0.703 -4.048,-1.856 -1.204,-1.243 -1.757,-2.765 -1.661,-4.562 l 0.083,-1.557 6.035,0.322 0.161,-3.009 -6.035,-0.322 0.572,-10.686 -3.005,-0.161 -0.816,15.252 c -0.141,2.645 0.666,4.9 2.42,6.763 1.674,1.77 3.718,2.721 6.131,2.85 2.432,0.131 4.573,-0.596 6.427,-2.179 1.943,-1.666 2.985,-3.821 3.126,-6.467 z"
             style="fill:#231f20;fill-opacity:1;fill-rule:nonzero;stroke:none"
             id="path186" /></g><g
           id="g188"
           transform="translate(339.2899,72.3105)"><path
             d="m 0,0 -7.54,-0.834 c -0.836,-0.093 -1.506,-0.459 -2.013,-1.099 -0.508,-0.64 -0.714,-1.39 -0.618,-2.25 l 4.199,-37.953 -3.042,-0.337 -4.199,37.953 c -0.104,0.947 -0.006,1.847 0.297,2.7 0.223,0.633 0.55,1.223 0.982,1.767 0.431,0.544 0.929,0.995 1.493,1.355 0.756,0.484 1.612,0.779 2.566,0.884 l 6.033,0.668 z"
             style="fill:#231f20;fill-opacity:1;fill-rule:nonzero;stroke:none"
             id="path190" /></g><g
           id="g192"
           transform="translate(357.3235,33.6777)"><path
             d="m 0,0 -2.359,-0.396 -1.264,2.87 C -4.468,1.19 -5.34,0.245 -6.237,-0.363 c -0.898,-0.607 -2.04,-1.027 -3.426,-1.26 -2.316,-0.389 -4.413,0.167 -6.29,1.67 -1.879,1.502 -3.025,3.491 -3.442,5.967 l -2.53,15.063 2.968,0.499 2.53,-15.063 c 0.287,-1.708 1.004,-3.058 2.154,-4.05 1.148,-0.993 2.517,-1.355 4.107,-1.088 1.605,0.27 2.784,1.073 3.533,2.41 0.708,1.261 0.919,2.754 0.629,4.479 l -2.53,15.063 3.018,0.507 1.772,-10.555 1.472,0.247 z"
             style="fill:#231f20;fill-opacity:1;fill-rule:nonzero;stroke:none"
             id="path194" /></g><g
           id="g196"
           transform="translate(366.9025,78.0189)"><path
             d="m 0,0 -7.4,-1.67 c -0.82,-0.185 -1.445,-0.623 -1.879,-1.315 -0.432,-0.693 -0.553,-1.461 -0.362,-2.306 l 8.401,-37.248 -2.985,-0.674 -8.401,37.249 c -0.21,0.929 -0.212,1.834 -0.007,2.715 0.151,0.655 0.411,1.277 0.779,1.866 0.367,0.589 0.812,1.093 1.333,1.513 0.698,0.565 1.516,0.954 2.452,1.165 l 5.92,1.336 z"
             style="fill:#231f20;fill-opacity:1;fill-rule:nonzero;stroke:none"
             id="path198" /></g><g
           id="g200"
           transform="translate(388.659,41.4685)"><path
             d="M 0,0 -2.896,-0.819 -6.222,10.956 C -6.286,10.865 -6.337,10.797 -6.378,10.75 -6.51,10.586 -6.61,10.468 -6.678,10.395 -7.101,9.933 -7.762,9.468 -8.661,8.997 -9.562,8.527 -10.557,8.138 -11.646,7.83 -13.511,7.303 -14.78,6.692 -15.457,5.997 c -0.564,-0.591 -0.866,-1.315 -0.909,-2.172 0.014,-0.303 0.029,-0.546 0.046,-0.73 0.015,-0.185 0.057,-0.393 0.123,-0.626 0.094,-0.334 0.248,-0.686 0.46,-1.058 0.435,-0.723 1.114,-1.216 2.033,-1.477 0.921,-0.262 1.834,-0.264 2.742,-0.009 0.528,0.15 0.993,0.376 1.398,0.679 0.404,0.303 0.705,0.672 0.904,1.105 l 0.84,-2.974 c -0.444,-0.449 -0.928,-0.829 -1.455,-1.14 -0.526,-0.311 -1.054,-0.541 -1.582,-0.69 -1.765,-0.499 -3.485,-0.26 -5.159,0.716 -1.675,0.974 -2.761,2.346 -3.26,4.112 -0.603,2.133 -0.344,3.961 0.776,5.483 1.12,1.522 3.13,2.693 6.035,3.514 1.568,0.443 2.776,1.018 3.627,1.727 1.083,0.9 1.516,1.948 1.302,3.148 -0.007,0.088 -0.033,0.216 -0.081,0.382 -0.339,1.2 -1.251,1.968 -2.736,2.304 -1.296,0.3 -2.694,0.237 -4.196,-0.187 -1.633,-0.461 -2.829,-1.492 -3.589,-3.092 -0.759,-1.601 -0.894,-3.267 -0.404,-5 l -3.39,0.931 c -0.3,2.327 0.16,4.432 1.382,6.317 1.223,1.883 2.948,3.14 5.175,3.769 2.309,0.653 4.481,0.6 6.512,-0.158 2.212,-0.832 3.62,-2.315 4.223,-4.448 z"
             style="fill:#231f20;fill-opacity:1;fill-rule:nonzero;stroke:none"
             id="path202" /></g><g
           id="g204"
           transform="translate(406.328,57.9239)"><path
             d="m 0,0 c 0.941,-2.606 1.002,-5.014 0.179,-7.228 -0.899,-2.405 -2.696,-4.094 -5.388,-5.067 -2.322,-0.84 -4.628,-0.715 -6.916,0.373 -2.29,1.088 -3.858,2.804 -4.705,5.15 -0.476,1.318 -0.514,2.759 -0.113,4.323 0.127,0.505 0.374,1.156 0.743,1.953 -0.745,0.044 -1.494,0.326 -2.247,0.845 -0.852,0.594 -1.458,1.388 -1.817,2.382 -0.5,1.384 -0.342,2.785 0.476,4.205 0.778,1.33 1.843,2.24 3.198,2.729 0.515,0.186 0.993,0.29 1.432,0.311 0.439,0.021 0.897,-0.049 1.374,-0.208 l 1.025,-2.833 c -0.258,0.256 -0.648,0.401 -1.169,0.433 -0.523,0.032 -1.058,-0.051 -1.606,-0.248 -0.758,-0.275 -1.322,-0.681 -1.692,-1.22 -0.427,-0.633 -0.497,-1.349 -0.209,-2.147 0.218,-0.603 0.598,-1.064 1.143,-1.382 0.543,-0.32 1.156,-0.438 1.838,-0.358 0.162,0.205 0.34,0.421 0.531,0.648 0.192,0.225 0.389,0.411 0.591,0.559 0.207,0.185 0.369,0.317 0.486,0.396 0.304,0.22 0.664,0.406 1.084,0.558 l 0.944,-2.614 c -1.411,-0.787 -2.413,-1.747 -3.005,-2.882 -0.701,-1.34 -0.76,-2.815 -0.177,-4.428 0.606,-1.678 1.651,-2.855 3.137,-3.534 1.485,-0.679 3.024,-0.73 4.621,-0.153 1.629,0.589 2.76,1.707 3.395,3.354 0.636,1.647 0.641,3.334 0.018,5.061 l -4.971,13.753 2.829,1.023 z"
             style="fill:#231f20;fill-opacity:1;fill-rule:nonzero;stroke:none"
             id="path206" /></g><g
           id="g208"
           transform="translate(399.4911,74.2005)"><path
             d="m 0,0 -15.443,-6.195 -1.151,2.87 12.602,5.054 -1.121,2.797 2.84,1.139 z"
             style="fill:#231f20;fill-opacity:1;fill-rule:nonzero;stroke:none"
             id="path210" /></g><g
           id="g212"
           transform="translate(430.5595,57.6018)"><path
             d="M 0,0 -2.751,-1.217 -7.939,10.52 C -8.044,9.697 -8.343,9.036 -8.833,8.535 -9.639,7.686 -10.905,6.881 -12.63,6.119 c -1.678,-0.742 -2.869,-1.544 -3.576,-2.404 -0.852,-1.04 -1.012,-2.162 -0.48,-3.366 0.455,-1.03 1.243,-1.732 2.365,-2.107 1.122,-0.375 2.215,-0.327 3.282,0.144 0.518,0.229 0.981,0.548 1.391,0.956 0.41,0.409 0.687,0.787 0.834,1.136 l 1.25,-2.827 c -0.376,-0.507 -0.803,-0.952 -1.281,-1.333 -0.478,-0.383 -0.969,-0.684 -1.47,-0.905 -1.678,-0.742 -3.414,-0.747 -5.208,-0.017 -1.795,0.73 -3.063,1.936 -3.805,3.615 -0.896,2.028 -0.897,3.873 -0.001,5.538 0.894,1.663 2.722,3.106 5.482,4.325 1.49,0.659 2.605,1.398 3.35,2.22 0.944,1.042 1.227,2.141 0.846,3.299 -0.019,0.086 -0.064,0.209 -0.134,0.367 -0.504,1.14 -1.515,1.773 -3.032,1.898 -1.325,0.114 -2.701,-0.143 -4.128,-0.774 -1.552,-0.687 -2.592,-1.876 -3.12,-3.566 -0.527,-1.692 -0.426,-3.36 0.301,-5.007 l -3.487,0.446 c -0.576,2.282 -0.401,4.438 0.53,6.469 0.93,2.029 2.446,3.508 4.547,4.437 0.988,0.437 1.86,0.713 2.614,0.829 0.755,0.116 1.668,0.107 2.738,-0.024 0.205,-0.082 0.409,-0.162 0.613,-0.242 0.167,-0.039 0.272,-0.003 0.316,0.112 0.033,0.053 0.023,0.128 -0.03,0.228 -0.054,0.099 -0.087,0.164 -0.101,0.197 l -1.219,2.755 2.753,1.217 z"
             style="fill:#231f20;fill-opacity:1;fill-rule:nonzero;stroke:none"
             id="path214" /></g><g
           id="g216"
           transform="translate(435.8908,46.6326)"><path
             d="m 0,0 -2.755,-1.332 -1.989,4.117 -2.709,-1.31 -1.346,2.784 5.466,2.64 z"
             style="fill:#231f20;fill-opacity:1;fill-rule:nonzero;stroke:none"
             id="path218" /></g><g
           id="g220"
           transform="translate(443.0716,71.5997)"><path
             d="m 0,0 c 0.862,-1.679 1.005,-3.431 0.428,-5.254 -0.577,-1.825 -1.697,-3.163 -3.358,-4.016 -1.084,-0.556 -2.153,-0.819 -3.211,-0.787 -1.056,0.031 -2.134,0.331 -3.233,0.895 l -0.069,3.118 c 0.676,-0.451 1.456,-0.751 2.341,-0.9 1.032,-0.171 1.96,-0.046 2.784,0.377 0.945,0.486 1.583,1.232 1.915,2.238 0.331,1.007 0.247,1.996 -0.251,2.967 -0.355,0.693 -1.035,1.172 -2.037,1.436 -0.841,0.211 -1.883,0.27 -3.126,0.176 -1.612,-0.125 -2.775,-0.168 -3.491,-0.126 -1.245,0.061 -2.301,0.317 -3.168,0.768 -1.022,0.526 -1.821,1.351 -2.399,2.477 -0.87,1.694 -1.023,3.514 -0.459,5.457 0.563,1.944 1.668,3.338 3.315,4.184 1.206,0.618 2.466,0.827 3.782,0.627 1.233,-0.186 2.432,-0.719 3.596,-1.6 L -7.269,8.532 c -0.713,0.938 -1.566,1.586 -2.558,1.943 -0.993,0.356 -1.932,0.308 -2.816,-0.146 -0.915,-0.47 -1.527,-1.276 -1.837,-2.418 -0.311,-1.142 -0.216,-2.198 0.281,-3.169 0.428,-0.832 1.131,-1.375 2.111,-1.632 0.694,-0.189 1.659,-0.248 2.895,-0.179 1.611,0.127 2.779,0.181 3.501,0.162 C -4.377,3.048 -3.286,2.819 -2.42,2.407 -1.376,1.912 -0.569,1.11 0,0"
             style="fill:#231f20;fill-opacity:1;fill-rule:nonzero;stroke:none"
             id="path222" /></g><g
           id="g224"
           transform="translate(464.982,76.1217)"><path
             d="m 0,0 -2.063,-1.209 -2.202,2.231 c -0.334,-1.5 -0.812,-2.693 -1.434,-3.58 -0.624,-0.887 -1.541,-1.686 -2.754,-2.397 -2.026,-1.188 -4.184,-1.414 -6.473,-0.678 -2.29,0.735 -4.069,2.187 -5.338,4.353 l -7.725,13.177 2.596,1.521 7.724,-13.177 c 0.876,-1.494 2.027,-2.5 3.454,-3.018 1.426,-0.519 2.835,-0.371 4.226,0.444 1.404,0.823 2.219,1.993 2.443,3.51 0.215,1.43 -0.12,2.9 -1.004,4.409 l -7.725,13.177 2.641,1.548 5.411,-9.233 1.287,0.755 z"
             style="fill:#231f20;fill-opacity:1;fill-rule:nonzero;stroke:none"
             id="path226" /></g><g
           id="g228"
           transform="translate(477.7788,84.3925)"><path
             d="m 0,0 -2.684,-1.77 -10.082,15.289 c -0.523,0.795 -1.267,1.3 -2.23,1.516 -0.965,0.215 -1.84,0.063 -2.627,-0.456 -0.701,-0.463 -1.162,-1.15 -1.381,-2.063 -0.201,-0.816 -0.185,-1.697 0.049,-2.643 l -2.926,1.307 c -0.084,2.371 0.882,4.222 2.9,5.553 1.474,0.971 3.088,1.335 4.841,1.091 1.752,-0.244 3.105,-1.09 4.058,-2.536 z"
             style="fill:#231f20;fill-opacity:1;fill-rule:nonzero;stroke:none"
             id="path230" /></g><g
           id="g232"
           transform="translate(488.0571,100.0987)"><path
             d="m 0,0 c 1.107,-1.529 1.513,-3.24 1.22,-5.13 -0.294,-1.891 -1.198,-3.383 -2.712,-4.478 -0.986,-0.714 -2.003,-1.135 -3.053,-1.264 -1.049,-0.128 -2.16,0.003 -3.333,0.394 l -0.54,3.073 c 0.736,-0.345 1.553,-0.523 2.451,-0.535 1.046,-0.014 1.944,0.251 2.694,0.795 0.861,0.622 1.379,1.456 1.553,2.501 0.175,1.046 -0.057,2.011 -0.697,2.895 -0.456,0.631 -1.2,1.002 -2.232,1.111 -0.862,0.08 -1.901,-0.02 -3.116,-0.299 -1.574,-0.37 -2.717,-0.588 -3.431,-0.655 -1.24,-0.128 -2.323,-0.035 -3.248,0.279 -1.09,0.365 -2.005,1.061 -2.747,2.085 -1.116,1.543 -1.543,3.318 -1.281,5.324 0.263,2.006 1.144,3.553 2.643,4.638 1.097,0.794 2.312,1.192 3.644,1.194 1.246,0.003 2.511,-0.343 3.797,-1.037 l -0.091,-3.56 c -0.845,0.819 -1.787,1.33 -2.822,1.533 -1.034,0.202 -1.956,0.012 -2.761,-0.571 -0.834,-0.603 -1.317,-1.492 -1.45,-2.668 -0.133,-1.176 0.12,-2.205 0.76,-3.09 0.547,-0.757 1.324,-1.188 2.332,-1.293 0.715,-0.082 1.678,0.005 2.889,0.262 1.574,0.369 2.719,0.599 3.436,0.69 1.306,0.154 2.419,0.094 3.337,-0.181 C -1.65,1.68 -0.73,1.01 0,0"
             style="fill:#231f20;fill-opacity:1;fill-rule:nonzero;stroke:none"
             id="path234" /></g><g
           id="g236"
           transform="translate(474.6929,115.7051)"><path
             d="m 0,0 -13.258,-10.054 -1.868,2.464 10.819,8.204 -1.82,2.401 2.438,1.849 z"
             style="fill:#231f20;fill-opacity:1;fill-rule:nonzero;stroke:none"
             id="path238" /></g></g></g></g></svg>
